{
    "asset": {
        "version": "2.0",
        "generator": "Open Asset Import Library (assimp v5.2.cf7d3637)"
    },
    "extensionsUsed": [
        "KHR_materials_volume",
        "FB_ngon_encoding"
    ],
    "accessors": [
        {
            "bufferView": 0,
            "byteOffset": 0,
            "componentType": 5126,
            "count": 677118,
            "type": "VEC3",
            "max": [
                30.825000762939454,
                15.501999855041504,
                48.0
            ],
            "min": [
                -29.176000595092775,
                -15.501999855041504,
                0.0
            ]
        },
        {
            "bufferView": 1,
            "byteOffset": 0,
            "componentType": 5126,
            "count": 677118,
            "type": "VEC3",
            "max": [
                1.0,
                1.0,
                1.0
            ],
            "min": [
                -1.0,
                -1.0,
                -1.0
            ]
        },
        {
            "bufferView": 2,
            "byteOffset": 0,
            "componentType": 5125,
            "count": 677118,
            "type": "SCALAR",
            "max": [
                677117
            ],
            "min": [
                0
            ]
        }
    ],
    "buffers": [
        {
            "byteLength": 18959304,
            "uri": "result.bin"
        }
    ],
    "bufferViews": [
        {
            "buffer": 0,
            "byteOffset": 0,
            "byteLength": 8125416,
            "target": 34962
        },
        {
            "buffer": 0,
            "byteOffset": 8125416,
            "byteLength": 8125416,
            "target": 34962
        },
        {
            "buffer": 0,
            "byteOffset": 16250832,
            "byteLength": 2708472,
            "target": 34963
        }
    ],
    "materials": [
        {
            "name": "DefaultMaterial",
            "pbrMetallicRoughness": {
                "metallicFactor": 0.0
            }
        }
    ],
    "meshes": [
        {
            "primitives": [
                {
                    "mode": 4,
                    "material": 0,
                    "indices": 2,
                    "attributes": {
                        "POSITION": 0,
                        "NORMAL": 1
                    }
                }
            ]
        }
    ],
    "nodes": [
        {
            "name": "<STL_BINARY>",
            "children": [
                1
            ]
        },
        {
            "name": "node",
            "mesh": 0
        }
    ],
    "scenes": [
        {
            "nodes": [
                0
            ]
        }
    ],
    "scene": 0
}